<?xml version="1.0" encoding="utf-8"?>
<!-- Generator: Adobe Illustrator 15.0.0, SVG Export Plug-In . SVG Version: 6.00 Build 0)  -->
<!DOCTYPE svg PUBLIC "-//W3C//DTD SVG 1.1//EN" "http://www.w3.org/Graphics/SVG/1.1/DTD/svg11.dtd">
<svg version="1.1" id="Layer_1" xmlns="http://www.w3.org/2000/svg" xmlns:xlink="http://www.w3.org/1999/xlink" x="0px" y="0px"
	 width="1920px" height="624px" viewBox="0 0 1920 624" enable-background="new 0 0 1920 624" xml:space="preserve">
<path fill="#F15E22" d="M542.46,471.954h-88.617l-17.471,41.018h-33.927L482.2,335.736h32.409l80.009,177.235h-34.434
	L542.46,471.954z M531.573,446.128l-33.422-77.477l-33.168,77.477H531.573z"/>
<path fill="#F15E22" d="M741.212,474.992c0,23.8-17.724,37.979-54.184,37.979H618.16V377.767h66.083
	c32.915,0,52.665,12.659,52.665,34.94c0,13.926-7.85,24.307-20.763,29.877C732.856,447.647,741.212,458.535,741.212,474.992
	 M648.29,434.229h33.168c16.204,0,24.56-5.824,24.56-16.964c0-11.141-8.356-16.458-24.56-16.458H648.29V434.229z M710.575,472.967
	c0-11.9-7.849-17.724-25.066-17.724H648.29v34.688h36.206C701.46,489.931,710.575,484.613,710.575,472.967"/>
<polygon fill="#F15E22" points="881.982,404.604 834.635,404.604 834.635,512.972 802.986,512.972 802.986,404.604 755.385,404.604 
	755.385,377.767 881.982,377.767 "/>
<path fill="#F15E22" d="M887.547,445.369c0-40.512,30.383-69.122,71.907-69.122c42.03,0,72.16,28.61,72.16,69.122
	c0,40.511-30.13,69.374-72.16,69.374C917.93,514.743,887.547,485.88,887.547,445.369 M999.712,445.369
	c0-25.826-17.218-42.284-40.258-42.284c-22.787,0-40.005,16.458-40.005,42.284c0,25.825,17.218,42.283,40.005,42.283
	C982.494,487.652,999.712,471.194,999.712,445.369"/>
<path d="M1182.541,501.324v18.736h-30.383v-18.736c-59.754-3.038-93.682-30.636-93.682-77.224c0-46.841,33.928-74.438,93.682-77.477
	v-17.977h30.383v17.977c59.754,3.038,93.428,30.89,93.428,77.477C1275.969,470.688,1242.295,498.793,1182.541,501.324
	 M1152.158,475.499V372.702c-40.764,3.04-61.525,20.003-61.525,51.398C1090.633,455.244,1112.913,472.207,1152.158,475.499
	 M1244.32,423.848c0-31.143-21.774-48.36-61.779-51.146v102.797C1223.053,472.461,1244.32,454.99,1244.32,423.848"/>
<path d="M1667.726,398.781c0,38.992-28.864,63.045-75.451,63.045h-40.005v51.146h-32.915V335.736h72.92
	C1638.861,335.736,1667.726,359.536,1667.726,398.781 M1634.558,398.781c0-22.28-14.938-35.193-43.803-35.193h-38.485v70.388h38.485
	C1619.619,433.976,1634.558,421.063,1634.558,398.781"/>
<path d="M1807.485,471.954h-88.617l-17.471,41.018h-33.928l79.756-177.235h32.409l80.009,177.235h-34.435L1807.485,471.954z
	 M1796.599,446.129l-33.422-77.478l-33.168,77.478H1796.599z"/>
<path d="M1297.838,424.354c0-52.411,40.51-91.149,95.453-91.149s95.454,38.485,95.454,91.149s-40.511,91.149-95.454,91.149
	S1297.838,476.765,1297.838,424.354 M1455.577,424.354c0-36.206-26.586-62.285-62.286-62.285s-62.285,26.079-62.285,62.285
	c0,36.207,26.585,62.285,62.285,62.285S1455.577,460.561,1455.577,424.354"/>
<path fill="#F15E22" d="M60.516,411.193c-1.007-16.643,2.846-33.533,9.174-49.321c6.353-15.872,15.954-30.48,27.34-43.5
	c23.174-25.88,53.641-44.508,85.587-56.986c32.097-12.423,65.742-19.73,99.408-23.546c33.701-3.927,67.503-4.449,101.055-3.169
	c16.776,0.682,33.494,1.998,50.15,3.58c8.29,0.805,16.956,1.815,24.99,2.832c8.05,1.005,16.101,2.149,24.156,3.044
	c32.123,3.77,64.677,5.751,97.308,7.503c65.331,3.234,131.078,4.15,197.332,5.593c-32.47,6.973-65.338,11.276-98.286,15.091
	c-8.243,0.857-16.497,1.623-24.761,2.325c-8.26,0.766-16.531,1.429-24.813,2.021c-8.279,0.642-16.568,1.067-24.869,1.444
	c-8.299,0.428-16.602,0.801-24.92,0.928c-33.264,0.907-66.643,0.428-100.136-2.205l-49.145-4.771
	c-16.159-1.476-32.33-2.381-48.476-3.233c-32.287-1.385-64.555-1.418-96.483,1.022c-31.894,2.52-63.515,7.385-93.738,16.58
	c-30.104,9.193-59.102,22.744-82.755,43.567c-11.979,10.209-22.258,22.416-30.669,36.027c-4.193,6.814-7.818,14.04-10.774,21.592
	C64.161,395.144,61.792,403.012,60.516,411.193"/>
<path fill="#F15E22" d="M486.853,213.341c4.708-1.68,9.357-3.086,13.918-4.614c1.138-0.391,2.293-0.657,3.416-1.085l3.336-1.415
	l6.608-2.811c2.183-0.967,4.376-1.791,6.524-2.822l6.381-3.246c4.235-2.177,8.493-4.075,12.632-6.573
	c16.666-9.031,33.272-19.163,50.607-28.332c34.654-18.583,72.439-33.446,111.386-42.183c4.87-1.083,9.713-2.358,14.614-3.232
	l14.722-2.495c9.841-1.492,19.641-3.297,29.541-3.927c9.885-0.807,19.746-1.777,29.621-2.352c9.879-0.225,19.755-0.296,29.612-0.303
	c4.926-0.032,9.854,0,14.772,0.111l14.736,0.945c9.815,0.673,19.608,1.496,29.369,2.393c9.759,1.027,19.466,2.724,29.149,4.375
	c9.68,1.684,19.327,3.438,28.91,5.643c-19.553,3.206-38.889,4.813-58.124,6.823c-9.608,1.193-19.185,2.311-28.741,3.281
	l-14.318,1.389l-14.227,1.941c-9.474,1.258-18.929,2.45-28.381,3.49c-9.372,1.603-18.738,3.018-28.092,4.482
	c-9.403,1.211-18.621,3.172-27.861,5.023l-13.891,2.569c-4.624,0.878-9.135,2.182-13.713,3.224
	c-36.695,8.222-72.195,19.713-108.021,33.269c-18.046,6.61-36.097,13.896-55.366,19.389
	C526.815,211.714,506.522,215.192,486.853,213.341"/>
<path fill="#F15E22" d="M215.978,321.61c-52.097,0-94.33,42.232-94.33,94.329s42.233,94.33,94.33,94.33s94.329-42.233,94.329-94.33
	S268.075,321.61,215.978,321.61 M232.015,484.455c-37.84,0-68.515-30.675-68.515-68.516c0-37.839,30.675-68.515,68.515-68.515
	s68.516,30.676,68.516,68.515C300.531,453.78,269.854,484.455,232.015,484.455"/>
</svg>
